# xmcd CD database file
#
# Track frame offsets:
#	150
#	21250
#	46368
#	68644
#	89379
#	112560
#	133911
#	159747
#	182742
#	202228
#	221960
#	242520
#
# Disc length: 3504 seconds
#
# Revision: 0
# Processed by: cddbd v1.5.1PL2 Copyright (c) Steve Scherf et al.
# Submitted via: CDex 1.50
#
DISCID=ac0dae0c
DTITLE=Ellen and Bernd Marquart Quartett - Songs for dinner tonight
DYEAR=2006
DGENRE=Jazz
TTITLE0=Agua de beber (Jobim)
TTITLE1=No problem (Jordan)
TTITLE2=When Sunny gets blue (Fisher)
TTITLE3=Things ain't what they used to be (Ellington)
TTITLE4=What's new (Haggart)
TTITLE5=Gentle rain (Bonfa)
TTITLE6=Caravan (Ellington)
TTITLE7=Zingaro (Jobim)
TTITLE8=Autumn leaves (Kosma)
TTITLE9=Sweet spring love (Marquart)
TTITLE10=There will never be another you (Warren)
TTITLE11=Take 5 (Brubeck)
EXTD=YEAR: 2006
EXTT0=
EXTT1=
EXTT2=
EXTT3=
EXTT4=
EXTT5=
EXTT6=
EXTT7=
EXTT8=
EXTT9=
EXTT10=
EXTT11=
PLAYORDER=
